<?xml version="1.0" encoding="utf-8"?>
<!-- Generator: Adobe Illustrator 16.0.1, SVG Export Plug-In . SVG Version: 6.00 Build 0)  -->
<!DOCTYPE svg PUBLIC "-//W3C//DTD SVG 1.1//EN" "http://www.w3.org/Graphics/SVG/1.1/DTD/svg11.dtd">
<svg version="1.1" id="Layer_1" xmlns="http://www.w3.org/2000/svg" xmlns:xlink="http://www.w3.org/1999/xlink" x="0px" y="0px"
	 width="165px" height="75px" viewBox="0 0 165 75" enable-background="new 0 0 165 75" xml:space="preserve">
<g>
	<polygon fill="none" points="134.705,42 132.364,42 133.535,43.171 	"/>
	<rect x="56" y="36" fill="none" width="10" height="2"/>
	<rect x="124" y="17" fill="none" width="3" height="10"/>
	<polygon fill="none" points="86.895,43.171 88.064,42 85.724,42 	"/>
	<polygon fill="none" points="99,20.084 98.005,21.079 99,22.074 99,28 99,28 99,15 99,15 	"/>
	<path fill="#F56529" d="M40.825,0.749C39.391,0.749,37.978,1,36.588,1h8.436C43.645,1,42.246,0.749,40.825,0.749z"/>
	<polygon fill="#F56529" points="61.898,29 56,29 56,36 66,36 66,28 68,28 68,23.133 	"/>
	<path fill="#F56529" d="M36,15V1.336C27,2.535,19.13,7,13.498,13.504c2.296,2.315,5.911,5.501,10.532,7.841
		C28.785,23.751,34,24.466,38,24.637V15H36z"/>
	<path fill="#F56529" d="M38,28v-0.96c-4-0.167-9.835-0.925-15.051-3.565c-4.813-2.437-8.569-5.654-10.997-8.082
		C7.594,21.155,4.949,28,4.698,36H36v-8H38z"/>
	<path fill="#F56529" d="M36,39.196V38H4.698c0.249,8,2.875,14.908,7.179,20.649c2.424-2.438,6.237-5.637,11.113-8.104
		C27.365,48.331,32,47.527,36,47.198V39.196L36,39.196z"/>
	<path fill="#F56529" d="M36,61h2v-9h-2v-2.391c-4,0.324-7.989,1.157-11.933,3.153c-4.689,2.373-8.38,5.616-10.669,7.939
		c6.631,7.718,16.454,12.63,27.428,12.63c1.689,0,3.346-0.332,4.973-0.332H36V61z"/>
	<rect x="56" y="38" fill="#F56529" width="10" height="1"/>
	<polygon fill="#BABABA" points="56,13.519 55.252,13 51,13 51,18 55.252,18 56,16.77 	"/>
	<polygon fill="#BABABA" points="86,13.519 84.986,13 81,13 81,17 84.986,17 86,15.854 	"/>
	<polygon fill="#BABABA" points="145,13.519 144.579,13 141,13 141,18 144.579,18 145,16.77 	"/>
	<polygon fill="#BABABA" points="73.595,49 73,49.621 73,62.537 73.589,63 77.17,63 78,62.544 78,49.615 77.163,49 	"/>
	<polygon fill="#BABABA" points="96.652,49 96,49.621 96,62.537 96.646,63 100.227,63 101,62.544 101,49.615 100.22,49 	"/>
	<polygon fill="#BABABA" points="121,49 121,53 123.777,53 124,52.105 124,49.621 123.777,49 	"/>
	<polygon fill="#BABABA" points="143.293,49 143,49.621 143,51.94 143.293,53 147,53 147,49.615 146.86,49 	"/>
	<polygon fill="#BABABA" points="146.867,63 147,62.544 147,60.351 146.86,60 143,60 143,62.537 143.287,63 	"/>
	<path fill="#BABABA" d="M159,45.423L152.42,39H145V29h6.225L159,21.666V8.622L151.225,1h-22.155h-3.757H97v5.905L91.632,1H66v4.074
		L61.898,1H45.023h-8.436H36v0.336V15h2v9.637v2.402V28h-2v7.965v2.387v0.845l0,0v8.002v2.411V52h2v9h-2v12h9.8H66v-1.984L68.009,73
		h14.713l4.172-4.171L91.065,73h14.714L108,70.851V73h17V63h4.364L131,60.413v6.329L137.706,73h14.714l6.58-6.258V56.158L157.75,55
		H159V45.423z M128,4h22.157L156,9.69v10.908L150.157,26H141v5h2v9h-15v-9h2V13h-2V4z M134.705,42l-1.17,1.171L132.364,42H134.705z
		 M127,27h-3V17h3V27z M100,4h26v10h-8v-1h-5v4l0,0v-1h9v12h-9v-2l0,0v5h5v-2h8v11h-26v-9h2V13h-2V4z M99,28L99,28v-5.926
		l-0.995-0.995L99,20.084V15l0,0V28z M68,4h22.564L96,9.69v9.326l-2.063,2.062L96,23.142V31h3v9H86V26.346L84.986,26H81v5h2v9H68v-9
		h2V13h-2V4z M88.064,42l-1.17,1.171L85.724,42H88.064z M66,28v7.965v2.387V39H56v-0.648v-2.387V29h5.898L68,23.133V28H66z M39,31h2
		V13h-2V4h21.83L67,9.69v10.908L60.83,26H51v5h2v9H39V31z M63,70H52v-7h1v-3h-4v3h2v7H39v-7h1V49h-1v-7h12v7h-2v3h4v-3h-1v-7h11v7
		h-1v14h1V70z M81.655,70H69.077L64,65.675V46.49L69.077,42h12.579L86,46.49v19.185L81.655,70z M104.712,70H92.133L87,65.675V46.49
		L92.133,42h12.579L109,46.49v19.185L104.712,70z M128.297,60H121v3h1v7h-12v-7h2V49h-2v-7h18.297L133,46.49v8.746L128.297,60z
		 M156,53h-4.473L156,57.226v8.449L151.352,70h-12.578L134,65.675V60h4.599L134,55.071V46.49l4.773-4.49h12.578L156,46.49V53z"/>
	<path fill="#FFFFFF" d="M63,63h-1V49h1v-7H52v7h1v3h-4v-3h2v-7H39v7h1v14h-1v7h12v-7h-2v-3h4v3h-1v7h11V63z M63,70H52v-6h2v-5h-6v5
		h2v6H39v-6h2V49h-2v-7h11v7h-2v3h6v-3h-2v-7h11v7h-2v15h2V70z"/>
	<polygon points="63,64 61,64 61,49 63,49 63,42 52,42 52,49 54,49 54,52 48,52 48,49 50,49 50,42 39,42 39,49 41,49 41,64 39,64 
		39,70 50,70 50,64 48,64 48,59 54,59 54,64 52,64 52,70 63,70 	"/>
	<path fill="#FFFFFF" d="M73.368,49L72,49.394v13.378L73.368,64h4.03L78,62.771V49.394L77.397,49H73.368z M78,62.544L77.17,63
		h-3.581L73,62.537V49.621L73.595,49h3.568L78,49.615V62.544z"/>
	<path fill="#FFFFFF" d="M86,46.49L81.655,42H69.077L64,46.49v19.185L69.077,70h12.579L86,65.675V46.49z M86,65.447L81.427,70
		H69.305L65,65.447V46.718L69.305,42h12.122L86,46.718V65.447z"/>
	<path d="M81.427,42H69.305L65,46.718v18.729L69.305,70h12.122L86,65.447V46.718L81.427,42z M78,62.771L77.397,64h-4.03L72,62.771
		V49.394L73.368,49h4.03L78,49.394V62.771z"/>
	<path fill="#FFFFFF" d="M96.425,49L96,49.394v13.378L96.425,64h4.029L101,62.771V49.394L100.454,49H96.425z M101,62.544L100.227,63
		h-3.58L96,62.537V49.621L96.652,49h3.567l0.78,0.615V62.544z"/>
	<path fill="#FFFFFF" d="M109,46.49L104.712,42H92.133L87,46.49v19.185L92.133,70h12.579L109,65.675V46.49z M104.484,70H92.361
		L88,65.447V46.718L92.361,42h12.123L109,46.718v18.729L104.484,70z"/>
	<path d="M109,46.718L104.484,42H92.361L88,46.718v18.729L92.361,70h12.123L109,65.447V46.718z M101,62.771L100.454,64h-4.029
		L96,62.771V49.394L96.425,49h4.029L101,49.394V62.771z"/>
	<path fill="#FFFFFF" d="M120,49v4h4.005L125,52.333v-2.939L124.005,49H120z M124,52.105L123.777,53H121v-4h2.777L124,49.621V52.105
		z"/>
	<path fill="#FFFFFF" d="M133,55.236V46.49L128.297,42H110v7h2v14h-2v7h12v-7h-1v-3h7.297L133,55.236z M128.068,59H120v5h2v6h-11v-6
		h2V49h-2v-7h17.068L132,46.718v8.291L128.068,59z"/>
	<path d="M132,55.009v-8.291L128.068,42H111v7h2v15h-2v6h11v-6h-2v-5h8.068L132,55.009z M125,52.333L124.005,53H120v-4h4.005
		L125,49.394V52.333z"/>
	<path fill="#FFFFFF" d="M138.773,42L134,46.49v8.581L138.599,60H134v5.675L138.773,70h12.578L156,65.675v-8.449L151.527,53H156
		v-6.51L151.352,42H138.773z M156,52h-8v-2.606L147.095,49h-4.029L142,49.394v2.774L143.065,53h8.06L156,57.453v7.994L151.125,70
		h-12.124L135,65.447V60h7v2.771L143.065,64h4.029L148,62.771v-2.643L147.095,59h-8.094L135,54.844v-8.126L139.001,42h12.124
		L156,46.718V52z M147,49.615V53h-3.707L143,51.94v-2.319L143.293,49h3.567L147,49.615z M143,62.537V60h3.86l0.14,0.351v2.193
		L146.867,63h-3.58L143,62.537z"/>
	<polygon points="139.001,42 135,46.718 135,54.844 139.001,59 147.095,59 148,60.129 148,62.771 147.095,64 143.065,64 142,62.771 
		142,60 135,60 135,65.447 139.001,70 151.125,70 156,65.447 156,57.453 151.125,53 143.065,53 142,52.168 142,49.394 143.065,49 
		147.095,49 148,49.394 148,52 156,52 156,46.718 151.125,42 	"/>
	<path fill="#FFFFFF" d="M57,16.998v-3.707L55.48,12H51v6h4.48L57,16.998z M51,18v-5h4.252L56,13.519v3.251L55.252,18H51z"/>
	<path fill="#FFFFFF" d="M53,40v-9h-2v-5h9.83L67,20.599V9.69L60.83,4H39v9h2v18h-2v9H53z M39,31h2V12h-2V4h21.603L66,9.918v10.453
		L60.603,26H51v5h2v8H39V31z"/>
	<path d="M53,39v-8h-2v-5h9.603L66,20.371V9.918L60.603,4H39v8h2v19h-2v8H53z M51,12h4.48L57,13.292v3.707L55.48,18H51V12z"/>
	<path fill="#FFFFFF" d="M86,16.082v-2.79L85.215,12H80v5h5.215L86,16.082z M81,17v-4h3.986L86,13.519v2.335L84.986,17H81z"/>
	<path fill="#FFFFFF" d="M70,13v18h-2v9h15v-9h-2v-5h3.986L86,26.346V40h13v-9h-3v-7.858l-2.063-2.063L96,19.016V9.69L90.564,4H68v9
		H70z M90.337,4L96,9.918v8.87l-2.29,2.291L96,23.37V31h2v8H86V26.118L85.215,25H80v6h3v8H69v-8h2V12h-2V4H90.337z"/>
	<path d="M69,12h2v19h-2v8h14v-8h-3v-6h5.215L86,26.118V39h12v-8h-2v-7.63l-2.29-2.291L96,18.788v-8.87L90.337,4H69V12z M80,12
		h5.215L86,13.292v2.79L85.215,17H80V12z"/>
	<path fill="#FFFFFF" d="M102,31h-2v9h26V29h-8v2h-5v-5l0,0v2h9V16h-9v1l0,0v-4h5v1h8V4h-26v9h2V31z M100,12V4h26v10h-8v-2h-6v6h1
		v-2h8v11h-8v-1h-1v5h6v-1h8v9h-26v-8h2V12H100z"/>
	<polygon points="102,31 100,31 100,39 126,39 126,30 118,30 118,31 112,31 112,26 113,26 113,27 121,27 121,16 113,16 113,18 
		112,18 112,12 118,12 118,14 126,14 126,4 100,4 100,12 102,12 	"/>
	<path fill="#FFFFFF" d="M146,16.998v-3.707L144.807,12H140v6h4.807L146,16.998z M141,18v-5h3.579L145,13.519v3.251L144.579,18H141z
		"/>
	<path fill="#FFFFFF" d="M130,13v18h-2v9h15v-9h-2v-5h9.157L156,20.599V9.69L150.157,4H128v9H130z M128,4h21.93L155,9.918v10.453
		L149.93,26H140v5h2v8h-14v-8h3V12h-3V4z"/>
	<path d="M131,12v19h-3v8h14v-8h-2v-5h9.93l5.07-5.629V9.918L149.93,4H128v8H131z M140,12h4.807L146,13.292v3.707L144.807,18H140V12
		z"/>
</g>
</svg>
